<svg xmlns="http://www.w3.org/2000/svg" xmlns:xlink="http://www.w3.org/1999/xlink" version="1.1" data-diagram-type="DESCRIPTION" style="width:1034px;height:523px;background:#FFFFFF;" width="1034px" height="523px" viewBox="0 0 1034 523" zoomAndPan="magnify" preserveAspectRatio="none" contentStyleType="text/css"><?plantuml 1.2026.8beta1?><defs><filter id="fpbg5t51lkv3x" x="-1" y="-1" width="300%" height="300%"><feGaussianBlur result="blurOut" stdDeviation="2"/><feColorMatrix type="matrix" in="blurOut" result="blurOut2" values="0 0 0 0 0 0 0 0 0 0 0 0 0 0 0 0 0 0 .4 0"/><feOffset result="blurOut3" in="blurOut2" dx="4" dy="4"/><feBlend in="SourceGraphic" in2="blurOut3" mode="normal"/></filter></defs><g font-family="sans-serif" lengthAdjust="spacing"><rect x="3" y="3" width="1018" height="16.641" fill="#FFC" style="stroke:#FD8;stroke-width:3;" rx="2.5" ry="2.5"/><text x="10" y="13.641" fill="#000" font-size="10" textLength="355.21" font-family="monospace">Please use '!option handwritten true' to enable handwritten</text><!--cluster Frontend Tier--><g class="cluster" data-qualified-name="Frontend Tier" id="ent0001" data-source-line="8"><rect x="7" y="28.641" width="222" height="228.93" fill="#E8F4F8" style="stroke:#181818;stroke-width:1;" filter="url(#fpbg5t51lkv3x)" rx="2.5" ry="2.5"/><text x="71.778" y="41.779" fill="#000" font-size="12" textLength="92.443" font-weight="700" font-family="Arial">Frontend Tier</text></g><!--cluster Backend Tier--><g class="cluster" data-qualified-name="Backend Tier" id="ent0004" data-source-line="13"><rect x="253" y="165.601" width="381" height="230.94" fill="#FFF3CD" style="stroke:#181818;stroke-width:1;" filter="url(#fpbg5t51lkv3x)" rx="2.5" ry="2.5"/><text x="399.429" y="178.739" fill="#000" font-size="12" textLength="88.143" font-weight="700" font-family="Arial">Backend Tier</text></g><!--cluster AI Microservice Tier--><g class="cluster" data-qualified-name="AI Microservice Tier" id="ent0008" data-source-line="19"><rect x="832" y="304.571" width="182" height="198.94" fill="#E2E3E5" style="stroke:#181818;stroke-width:1;" filter="url(#fpbg5t51lkv3x)" rx="2.5" ry="2.5"/><text x="855.91" y="317.709" fill="#000" font-size="12" textLength="134.18" font-weight="700" font-family="Arial">AI Microservice Tier</text></g><!--entity ReactClient--><g class="entity" data-qualified-name="Frontend Tier.ReactClient" id="ent0002" data-source-line="9"><rect x="36.63" y="60.641" width="174.736" height="43.969" fill="#D4EDDA" style="stroke:#181818;stroke-width:0.5;" filter="url(#fpbg5t51lkv3x)" rx="2.5" ry="2.5"/><rect x="191.366" y="65.641" width="15" height="10" fill="#D4EDDA" style="stroke:#181818;stroke-width:0.5;"/><rect x="189.366" y="67.641" width="4" height="2" fill="#D4EDDA" style="stroke:#181818;stroke-width:0.5;"/><rect x="189.366" y="71.641" width="4" height="2" fill="#D4EDDA" style="stroke:#181818;stroke-width:0.5;"/><text x="51.63" y="91.779" fill="#000" font-size="12" textLength="134.736" font-family="Arial">React SPA Component</text></g><!--entity WASM--><g class="entity" data-qualified-name="Frontend Tier.WASM" id="ent0003" data-source-line="10"><rect x="22.65" y="197.601" width="190.691" height="43.969" fill="#D4EDDA" style="stroke:#181818;stroke-width:0.5;" filter="url(#fpbg5t51lkv3x)" rx="2.5" ry="2.5"/><rect x="193.341" y="202.601" width="15" height="10" fill="#D4EDDA" style="stroke:#181818;stroke-width:0.5;"/><rect x="191.341" y="204.601" width="4" height="2" fill="#D4EDDA" style="stroke:#181818;stroke-width:0.5;"/><rect x="191.341" y="208.601" width="4" height="2" fill="#D4EDDA" style="stroke:#181818;stroke-width:0.5;"/><text x="37.65" y="228.739" fill="#000" font-size="12" textLength="150.691" font-family="Arial">MediaPipe WASM Worker</text></g><!--entity SpringBackend--><g class="entity" data-qualified-name="Backend Tier.SpringBackend" id="ent0005" data-source-line="14"><rect x="450.18" y="197.601" width="167.641" height="43.969" fill="#FFEBAA" style="stroke:#181818;stroke-width:0.5;" filter="url(#fpbg5t51lkv3x)" rx="2.5" ry="2.5"/><rect x="597.821" y="202.601" width="15" height="10" fill="#FFEBAA" style="stroke:#181818;stroke-width:0.5;"/><rect x="595.821" y="204.601" width="4" height="2" fill="#FFEBAA" style="stroke:#181818;stroke-width:0.5;"/><rect x="595.821" y="208.601" width="4" height="2" fill="#FFEBAA" style="stroke:#181818;stroke-width:0.5;"/><text x="465.18" y="228.739" fill="#000" font-size="12" textLength="127.641" font-family="Arial">Spring Boot REST API</text></g><!--entity Security--><g class="entity" data-qualified-name="Backend Tier.Security" id="ent0006" data-source-line="15"><rect x="268.82" y="336.571" width="158.365" height="43.969" fill="#FFEBAA" style="stroke:#181818;stroke-width:0.5;" filter="url(#fpbg5t51lkv3x)" rx="2.5" ry="2.5"/><rect x="407.185" y="341.571" width="15" height="10" fill="#FFEBAA" style="stroke:#181818;stroke-width:0.5;"/><rect x="405.185" y="343.571" width="4" height="2" fill="#FFEBAA" style="stroke:#181818;stroke-width:0.5;"/><rect x="405.185" y="347.571" width="4" height="2" fill="#FFEBAA" style="stroke:#181818;stroke-width:0.5;"/><text x="283.82" y="367.709" fill="#000" font-size="12" textLength="118.365" font-family="Arial">Spring Security JWT</text></g><!--entity Tika--><g class="entity" data-qualified-name="Backend Tier.Tika" id="ent0007" data-source-line="16"><rect x="462.27" y="336.571" width="155.453" height="43.969" fill="#FFEBAA" style="stroke:#181818;stroke-width:0.5;" filter="url(#fpbg5t51lkv3x)" rx="2.5" ry="2.5"/><rect x="597.723" y="341.571" width="15" height="10" fill="#FFEBAA" style="stroke:#181818;stroke-width:0.5;"/><rect x="595.723" y="343.571" width="4" height="2" fill="#FFEBAA" style="stroke:#181818;stroke-width:0.5;"/><rect x="595.723" y="347.571" width="4" height="2" fill="#FFEBAA" style="stroke:#181818;stroke-width:0.5;"/><text x="477.27" y="367.709" fill="#000" font-size="12" textLength="115.453" font-family="Arial">Apache Tika Parser</text></g><!--entity FastApiAI--><g class="entity" data-qualified-name="AI Microservice Tier.FastApiAI" id="ent0009" data-source-line="20"><rect x="850.65" y="336.571" width="144.701" height="43.969" fill="#D6D8D9" style="stroke:#181818;stroke-width:0.5;" filter="url(#fpbg5t51lkv3x)" rx="2.5" ry="2.5"/><rect x="975.351" y="341.571" width="15" height="10" fill="#D6D8D9" style="stroke:#181818;stroke-width:0.5;"/><rect x="973.351" y="343.571" width="4" height="2" fill="#D6D8D9" style="stroke:#181818;stroke-width:0.5;"/><rect x="973.351" y="347.571" width="4" height="2" fill="#D6D8D9" style="stroke:#181818;stroke-width:0.5;"/><text x="865.65" y="367.709" fill="#000" font-size="12" textLength="104.701" font-family="Arial">FastAPI AI Engine</text></g><!--entity Pydantic--><g class="entity" data-qualified-name="AI Microservice Tier.Pydantic" id="ent0010" data-source-line="21"><rect x="848.23" y="443.541" width="149.547" height="43.969" fill="#D6D8D9" style="stroke:#181818;stroke-width:0.5;" filter="url(#fpbg5t51lkv3x)" rx="2.5" ry="2.5"/><rect x="977.777" y="448.541" width="15" height="10" fill="#D6D8D9" style="stroke:#181818;stroke-width:0.5;"/><rect x="975.777" y="450.541" width="4" height="2" fill="#D6D8D9" style="stroke:#181818;stroke-width:0.5;"/><rect x="975.777" y="454.541" width="4" height="2" fill="#D6D8D9" style="stroke:#181818;stroke-width:0.5;"/><text x="863.23" y="474.679" fill="#000" font-size="12" textLength="109.547" font-family="Arial">Pydantic Validator</text></g><!--entity DB--><g class="entity" data-qualified-name="DB" id="ent0011" data-source-line="24"><path d="M652.65,347.071 C652.65,337.071 734,337.071 734,337.071 C734,337.071 815.349,337.071 815.349,347.071 L815.349,370.039 C815.349,380.039 734,380.039 734,380.039 C734,380.039 652.65,380.039 652.65,370.039 L652.65,347.071" style="stroke:#181818;stroke-width:0.5;" fill="#F8D7DA" filter="url(#fpbg5t51lkv3x)"/><path d="M652.65,347.071 C652.65,357.071 734,357.071 734,357.071 C734,357.071 815.349,357.071 815.349,347.071" style="stroke:#181818;stroke-width:0.5;" fill="none"/><text x="662.65" y="372.209" fill="#000" font-size="12" textLength="142.699" font-family="Arial">PostgreSQL Component</text></g><!--link ReactClient to SpringBackend--><g class="link" data-entity-1="ent0002" data-entity-2="ent0005" id="lnk12" data-source-line="26" data-link-type="dependency"><path d="M188.97,105.011 C265.62,130.241 387.581,170.387 464.251,195.627" style="stroke:#181818;stroke-width:1;" fill="none" id="ReactClient-to-SpringBackend"/><polygon points="469,197.191,461.702,190.577,464.251,195.627,459.201,198.176,469,197.191" fill="#181818" style="stroke:#181818;stroke-width:1;stroke-linejoin:miter;stroke-miterlimit:10;"/><text x="317" y="146.739" fill="#000" font-size="12" textLength="96.258" font-family="Arial">REST API / HTTP</text></g><!--link ReactClient to WASM--><g class="link" data-entity-1="ent0002" data-entity-2="ent0003" id="lnk13" data-source-line="27" data-link-type="dependency"><path d="M123.05,105.011 C121.93,130.281 120.292,167.076 119.172,192.306" style="stroke:#181818;stroke-width:1;stroke-dasharray:7,7;" fill="none" id="ReactClient-to-WASM"/><polygon points="118.95,197.301,123.345,188.487,119.172,192.306,115.353,188.132,118.95,197.301" fill="#181818" style="stroke:#181818;stroke-width:1;stroke-linejoin:miter;stroke-miterlimit:10;"/><text x="123" y="146.739" fill="#000" font-size="12" textLength="88.178" font-family="Arial">invokes locally</text></g><!--link SpringBackend to Security--><g class="link" data-entity-1="ent0005" data-entity-2="ent0006" id="lnk14" data-source-line="28" data-link-type="dependency"><path d="M504.94,241.991 C470.1,267.651 416.076,307.426 381.186,333.116" style="stroke:#181818;stroke-width:1;stroke-dasharray:7,7;" fill="none" id="SpringBackend-to-Security"/><polygon points="377.16,336.081,386.779,333.965,381.186,333.116,382.036,327.523,377.16,336.081" fill="#181818" style="stroke:#181818;stroke-width:1;stroke-linejoin:miter;stroke-miterlimit:10;"/></g><!--link SpringBackend to Tika--><g class="link" data-entity-1="ent0005" data-entity-2="ent0007" id="lnk15" data-source-line="29" data-link-type="dependency"><path d="M534.94,241.991 C536.06,267.721 537.72,305.645 538.85,331.315" style="stroke:#181818;stroke-width:1;stroke-dasharray:7,7;" fill="none" id="SpringBackend-to-Tika"/><polygon points="539.07,336.311,542.67,327.143,538.85,331.315,534.678,327.495,539.07,336.311" fill="#181818" style="stroke:#181818;stroke-width:1;stroke-linejoin:miter;stroke-miterlimit:10;"/></g><!--link SpringBackend to FastApiAI--><g class="link" data-entity-1="ent0005" data-entity-2="ent0009" id="lnk16" data-source-line="30" data-link-type="dependency"><path d="M618.12,233.891 C679.51,245.511 763.75,265.461 833,296.571 C856.07,306.941 875.671,320.133 892.901,333.243" style="stroke:#181818;stroke-width:1;" fill="none" id="SpringBackend-to-FastApiAI"/><polygon points="896.88,336.271,892.14,327.638,892.901,333.243,887.295,334.004,896.88,336.271" fill="#181818" style="stroke:#181818;stroke-width:1;stroke-linejoin:miter;stroke-miterlimit:10;"/><text x="811" y="285.709" fill="#000" font-size="12" textLength="72.17" font-family="Arial">HTTP / JSON</text></g><!--link FastApiAI to Pydantic--><g class="link" data-entity-1="ent0009" data-entity-2="ent0010" id="lnk17" data-source-line="31" data-link-type="dependency"><path d="M923,380.801 C923,399.011 923,420.111 923,438.321" style="stroke:#181818;stroke-width:1;stroke-dasharray:7,7;" fill="none" id="FastApiAI-to-Pydantic"/><polygon points="923,443.321,927,434.321,923,438.321,919,434.321,923,443.321" fill="#181818" style="stroke:#181818;stroke-width:1;stroke-linejoin:miter;stroke-miterlimit:10;"/></g><!--link SpringBackend to DB--><g class="link" data-entity-1="ent0005" data-entity-2="ent0011" id="lnk18" data-source-line="32" data-link-type="dependency"><path d="M565.25,241.991 C603.04,267.871 662.105,308.315 699.495,333.925" style="stroke:#181818;stroke-width:1;" fill="none" id="SpringBackend-to-DB"/><polygon points="703.62,336.751,698.455,328.365,699.495,333.925,693.934,334.965,703.62,336.751" fill="#181818" style="stroke:#181818;stroke-width:1;stroke-linejoin:miter;stroke-miterlimit:10;"/><text x="629" y="285.709" fill="#000" font-size="12" textLength="101.104" font-family="Arial">JDBC Connection</text></g><?plantuml-src RLFBRjim4BphAnRsEIdoQElw440o9JH6dQgH41-A7hRIHYP4am999t23_djNKcGhgM_YpEpES0YvMke6BMvXWxfyjj9xql28ob7W3jpMQ5DihDdIVrI3HOqLPNwl22mL7dMbnWAtmT8yIrs1jxinKT8ZxfHFZFPto9j3Ar6TvZFvX-3YCWXUtM2IM8P9bv1BiXEOnhFaEfd1Im3myvwmy92b8IpCjZ6QjFy5wA335qho6QRYEXOYREKhAYMciY5OXzaAriRMPBk1xZme_uxS8_uOcIT9ShKGlNdMsFQkaJ4UxkCiXp2zxPRrn339Ct4KXgE9Z8eTrx-7vJhl1mPWf0qvmeROjqP8qRhNeDrva8s3XhUmaeKrB7oI1HtQkeoluezzu0ITvup0qbXNKbEtiKCRoU1KV18pyQMLfliIjPS5FA2I9NhJkn_WGSe9cCNVw3X2QfolB6K_lXsVOzAEYOWZpyHdxZOOFytPsSsxikQ79k43VCtpz8t-_FocVwavIFraQdAWJ85AxOEtQrhXKEe9gYtn7Tn6EJOnxxmvmZBxVXSSyNPuwE340hxd79OYMl3zjUO_H1hz3m00?></g></svg>